<?xml version="1.0" encoding="UTF-8"?>
<!DOCTYPE svg PUBLIC "-//W3C//DTD SVG 1.1//EN" "http://www.w3.org/Graphics/SVG/1.1/DTD/svg11.dtd">
<!-- Creator: CorelDRAW X6 -->
<svg xmlns="http://www.w3.org/2000/svg" xml:space="preserve" width="7in" height="1.5in" version="1.1" style="shape-rendering:geometricPrecision; text-rendering:geometricPrecision; image-rendering:optimizeQuality; fill-rule:evenodd; clip-rule:evenodd"
viewBox="0 0 7000 1500"
 xmlns:xlink="http://www.w3.org/1999/xlink">
 <defs>
  <style type="text/css">
   <![CDATA[
    .str0 {stroke:#B1B6B9;stroke-width:6.94488}
    .fil1 {fill:#475A69}
    .fil4 {fill:#4D4D4D}
    .fil0 {fill:#617282}
    .fil2 {fill:#B1B6B9}
    .fil5 {fill:#E6E6E6}
    .fil3 {fill:#EFF1EE}
   ]]>
  </style>
 </defs>
 <g id="Camada_x0020_1">
  <metadata id="CorelCorpID_0Corel-Layer"/>
  <g id="_312976528">
   <path class="fil0" d="M80 1060l0 -944 330 0 163 822 24 0 163 -822 330 0 0 944 -173 0 0 -813 -24 0 -162 813 -294 0 -162 -813 -24 0 0 813 -173 0zm1194 0l0 -669 170 0 0 669 -170 0zm359 0l0 -944 170 0 0 944 -170 0zm359 0l0 -944 170 0 0 944 -170 0zm663 19c-66,0 -125,-14 -176,-42 -51,-28 -90,-68 -119,-120 -28,-52 -42,-113 -42,-183l0 -16c0,-70 14,-131 42,-183 28,-52 67,-92 117,-120 50,-28 109,-42 175,-42 66,0 123,15 171,44 49,29 86,70 113,121 27,52 40,112 40,180l0 58 -487 0c2,46 19,83 51,112 32,29 72,43 119,43 48,0 83,-10 105,-31 22,-21 40,-44 51,-69l139 73c-13,23 -31,49 -55,76 -24,27 -55,51 -95,70 -40,19 -90,29 -151,29zm-163 -430l313 0c-4,-39 -19,-70 -47,-93 -27,-23 -63,-35 -107,-35 -46,0 -82,12 -109,35 -27,23 -44,54 -50,93zm636 411l0 -669 167 0 0 88 24 0c11,-23 31,-46 61,-67 30,-21 75,-32 135,-32 52,0 98,12 137,36 39,24 69,57 91,98 22,42 32,91 32,146l0 399 -170 0 0 -386c0,-50 -12,-88 -37,-113 -25,-25 -60,-38 -106,-38 -52,0 -93,17 -121,52 -29,35 -43,83 -43,145l0 340 -170 0zm830 0l0 -669 167 0 0 88 24 0c11,-23 31,-46 61,-67 30,-21 75,-32 135,-32 52,0 98,12 137,36 39,24 69,57 91,98 22,42 32,91 32,146l0 399 -170 0 0 -386c0,-50 -12,-88 -37,-113 -25,-25 -60,-38 -106,-38 -52,0 -93,17 -121,52 -29,35 -43,83 -43,145l0 340 -170 0zm830 0l0 -669 170 0 0 669 -170 0zm613 11c-52,0 -98,-12 -137,-36 -39,-24 -69,-57 -91,-99 -22,-42 -32,-91 -32,-146l0 -399 170 0 0 386c0,50 12,88 37,113 25,25 60,38 106,38 52,0 93,-17 121,-52 29,-35 43,-83 43,-145l0 -340 170 0 0 669 -167 0 0 -88 -24 0c-11,22 -31,44 -61,66 -30,22 -75,32 -135,32zm576 -11l0 -669 167 0 0 73 24 0c12,-22 31,-42 58,-59 27,-17 62,-25 107,-25 48,0 86,9 115,28 29,18 51,42 66,72l24 0c15,-29 37,-53 65,-71 28,-19 67,-28 119,-28 41,0 79,9 113,26 34,18 61,44 81,80 20,36 30,80 30,134l0 439 -170 0 0 -427c0,-37 -9,-64 -28,-83 -19,-18 -45,-28 -80,-28 -39,0 -69,12 -90,37 -21,25 -32,60 -32,106l0 395 -170 0 0 -427c0,-37 -9,-64 -28,-83 -19,-18 -45,-28 -80,-28 -39,0 -69,12 -90,37 -21,25 -32,60 -32,106l0 395 -170 0z"/>
   <path class="fil1" d="M54 1060l0 -944 330 0 163 822 24 0 163 -822 330 0 0 944 -173 0 0 -813 -24 0 -162 813 -294 0 -162 -813 -24 0 0 813 -173 0zm1194 0l0 -669 170 0 0 669 -170 0zm359 0l0 -944 170 0 0 944 -170 0zm359 0l0 -944 170 0 0 944 -170 0zm663 19c-66,0 -125,-14 -176,-42 -51,-28 -90,-68 -119,-120 -28,-52 -42,-113 -42,-183l0 -16c0,-70 14,-131 42,-183 28,-52 67,-92 117,-120 50,-28 109,-42 175,-42 66,0 123,15 171,44 49,29 86,70 113,121 27,52 40,112 40,180l0 58 -487 0c2,46 19,83 51,112 32,29 72,43 119,43 48,0 83,-10 105,-31 22,-21 40,-44 51,-69l139 73c-13,23 -31,49 -55,76 -24,27 -55,51 -95,70 -40,19 -90,29 -151,29zm-163 -430l313 0c-4,-39 -19,-70 -47,-93 -27,-23 -63,-35 -107,-35 -46,0 -82,12 -109,35 -27,23 -44,54 -50,93zm636 411l0 -669 167 0 0 88 24 0c11,-23 31,-46 61,-67 30,-21 75,-32 135,-32 52,0 98,12 137,36 39,24 69,57 91,98 22,42 32,91 32,146l0 399 -170 0 0 -386c0,-50 -12,-88 -37,-113 -25,-25 -60,-38 -106,-38 -52,0 -93,17 -121,52 -29,35 -43,83 -43,145l0 340 -170 0zm830 0l0 -669 167 0 0 88 24 0c11,-23 31,-46 61,-67 30,-21 75,-32 135,-32 52,0 98,12 137,36 39,24 69,57 91,98 22,42 32,91 32,146l0 399 -170 0 0 -386c0,-50 -12,-88 -37,-113 -25,-25 -60,-38 -106,-38 -52,0 -93,17 -121,52 -29,35 -43,83 -43,145l0 340 -170 0zm830 0l0 -669 170 0 0 669 -170 0zm613 11c-52,0 -98,-12 -137,-36 -39,-24 -69,-57 -91,-99 -22,-42 -32,-91 -32,-146l0 -399 170 0 0 386c0,50 12,88 37,113 25,25 60,38 106,38 52,0 93,-17 121,-52 29,-35 43,-83 43,-145l0 -340 170 0 0 669 -167 0 0 -88 -24 0c-11,22 -31,44 -61,66 -30,22 -75,32 -135,32zm576 -11l0 -669 167 0 0 73 24 0c12,-22 31,-42 58,-59 27,-17 62,-25 107,-25 48,0 86,9 115,28 29,18 51,42 66,72l24 0c15,-29 37,-53 65,-71 28,-19 67,-28 119,-28 41,0 79,9 113,26 34,18 61,44 81,80 20,36 30,80 30,134l0 439 -170 0 0 -427c0,-37 -9,-64 -28,-83 -19,-18 -45,-28 -80,-28 -39,0 -69,12 -90,37 -21,25 -32,60 -32,106l0 395 -170 0 0 -427c0,-37 -9,-64 -28,-83 -19,-18 -45,-28 -80,-28 -39,0 -69,12 -90,37 -21,25 -32,60 -32,106l0 395 -170 0z"/>
   <circle class="fil2 str0" cx="4879" cy="119" r="73"/>
   <circle class="fil3" cx="4870" cy="119" r="73"/>
   <path class="fil4" d="M5343 1453l0 -312 49 0 0 39 9 0c6,-11 16,-21 29,-31 14,-9 33,-14 57,-14 24,0 44,5 59,16 15,11 26,24 33,39l9 0c7,-15 18,-28 33,-39 15,-11 35,-16 62,-16 21,0 39,4 55,13 16,9 28,21 37,37 9,16 14,35 14,57l0 211 -50 0 0 -207c0,-21 -6,-37 -18,-49 -12,-12 -29,-18 -51,-18 -23,0 -42,7 -57,22 -15,15 -22,36 -22,64l0 188 -50 0 0 -207c0,-21 -6,-37 -18,-49 -12,-12 -29,-18 -51,-18 -23,0 -42,7 -57,22 -15,15 -22,36 -22,64l0 188 -50 0z"/>
   <polygon class="fil4" points="5830,1454 5830,1140 5880,1140 5880,1288 5889,1288 6032,1139 6102,1139 5929,1312 6087,1454 6018,1454 5889,1336 5880,1336 5880,1454 "/>
   <path class="fil5" d="M5332 1453l0 -312 49 0 0 39 9 0c6,-11 16,-21 29,-31 14,-9 33,-14 57,-14 24,0 44,5 59,16 15,11 26,24 33,39l9 0c7,-15 18,-28 33,-39 15,-11 35,-16 62,-16 21,0 39,4 55,13 16,9 28,21 37,37 9,16 14,35 14,57l0 211 -50 0 0 -207c0,-21 -6,-37 -18,-49 -12,-12 -29,-18 -51,-18 -23,0 -42,7 -57,22 -15,15 -22,36 -22,64l0 188 -50 0 0 -207c0,-21 -6,-37 -18,-49 -12,-12 -29,-18 -51,-18 -23,0 -42,7 -57,22 -15,15 -22,36 -22,64l0 188 -50 0z"/>
   <polygon class="fil5" points="5823,1454 5823,1140 5874,1140 5874,1288 5883,1288 6026,1139 6096,1139 5923,1312 6081,1454 6011,1454 5883,1336 5874,1336 5874,1454 "/>
   <g>
    <path class="fil4" d="M6157 1366l0 -144 -58 0 0 -44 58 0 0 -67 50 0 0 67 103 -1 0 44 -102 1 0 144 0 0 0 25c0,13 6,19 19,19l69 0 1 44 -83 0c-18,0 -32,-5 -41,-15 -10,-10 -14,-23 -14,-40l0 -33 0 0z"/>
    <path class="fil5" d="M6148 1366l0 -144 -58 0 0 -44 58 0 0 -67 50 0 0 67 103 -1 0 44 -102 1 0 144 0 0 0 25c0,13 6,19 19,19l69 0 1 44 -83 0c-18,0 -32,-5 -41,-15 -10,-10 -14,-23 -14,-40l0 -33 0 0z"/>
   </g>
   <circle class="fil2 str0" cx="1356" cy="119" r="73"/>
   <circle class="fil5" cx="1347" cy="119" r="73"/>
  </g>
 </g>
</svg>
